FILE "Wakusei Woodstock - F.H.B. - Funky Horror Band (1991)(Sega)(JP).img" BINARY
  TRACK 01 MODE1/2352
    INDEX 01 00:00:00
  TRACK 02 AUDIO
    PREGAP 00:02:00
    INDEX 01 05:28:73
  TRACK 03 AUDIO
    INDEX 00 08:20:03
    INDEX 01 08:22:02
  TRACK 04 AUDIO
    INDEX 00 11:12:39
    INDEX 01 11:14:38
  TRACK 05 AUDIO
    INDEX 00 14:24:15
    INDEX 01 14:26:14
